<?xml version="1.0" encoding="UTF-8"?>
<svg xmlns="http://www.w3.org/2000/svg" viewBox="0 0 574.95 1065.7">
  <defs>
    <style>
      .cls-1 {
        fill: #58595b;
      }

      .cls-2 {
        fill: none;
        stroke: #58595b;
        stroke-miterlimit: 10;
        stroke-width: 19px;
      }

      .cls-3 {
        opacity: .75;
      }
    </style>
  </defs>
  <g id="lines" class="cls-3">
    <g>
      <line class="cls-2" x1="220.52" y1="68.22" x2="220.52" y2="967.46"/>
      <line class="cls-2" x1="331.94" y1="504.26" x2="229.96" y2="504.26"/>
      <line class="cls-2" x1="333.73" y1="750.99" x2="230" y2="750.99"/>
      <line class="cls-2" x1="331.94" y1="290.06" x2="229.96" y2="290.06"/>
      <line class="cls-2" x1="299.44" y1="186.21" x2="229.96" y2="186.21"/>
      <line class="cls-2" x1="301.23" y1="401.34" x2="229.96" y2="401.34"/>
      <line class="cls-2" x1="301.23" y1="627.63" x2="229.96" y2="627.63"/>
      <line class="cls-2" x1="301.23" y1="875.35" x2="230.01" y2="875.35"/>
      <line class="cls-2" x1="381.51" y1="976.46" x2="211.04" y2="976.46"/>
      <line class="cls-2" x1="381.51" y1="58.77" x2="211.04" y2="58.77"/>
    </g>
  </g>
  <g id="numbers" class="cls-3">
    <g>
      <path class="cls-1" d="m197.03,787.07c-6.87-8.19-11.72-13.7-15.84-13.7-2.77,0-4.28,1.72-4.28,4.72,0,2.28,1.4,4.13,2.9,5.75l-3.58,3.55c-3-2.97-4.53-5.83-4.53-10.21,0-6.02,3.6-10.11,9.11-10.11,4.82,0,9.94,4.95,14.77,10.49-.17-1.64-.32-3.71-.32-5.19v-6.77h5.57v21.47h-3.8Z"/>
      <path class="cls-1" d="m197.36,760.6l-4.2-2.98c1.58-1.87,2.86-4.05,2.86-6.74,0-3.26-1.55-5.52-4.48-5.52s-4.4,2.21-4.4,5.2c0,1.9.36,2.88,1.45,4.81l-1.91,2.95-14.43-.78v-17.51h5.58v11.79l5.34.47c-.46-1.31-.65-2.34-.65-3.75,0-5.26,2.79-9.82,8.87-9.82s9.98,5.32,9.98,11.2c0,4.97-1.77,8.31-4.01,10.67Z"/>
      <path class="cls-1" d="m179.21,734.55c-4.68,0-7.5-2.87-7.5-6.68s2.82-6.68,7.5-6.68,7.6,2.87,7.6,6.68-2.95,6.68-7.6,6.68Zm2.52-14.48l-8.97-7.29,3.29-3.41,7.81,8.4-2.13,2.3Zm-2.52,5.67c-3.08,0-3.95,1.01-3.95,2.13s.87,2.13,3.95,2.13,4.05-1.01,4.05-2.13-1-2.13-4.05-2.13Zm14.56-2.6c-4.68,0-7.5-2.87-7.5-6.68s2.82-6.68,7.5-6.68,7.6,2.87,7.6,6.68-2.95,6.68-7.6,6.68Zm2.52,11.76l-7.81-8.4,2.13-2.3,8.97,7.29-3.29,3.41Zm-2.52-20.57c-3.08,0-3.95,1.01-3.95,2.13s.87,2.13,3.95,2.13,4.05-1.01,4.05-2.13-1-2.13-4.05-2.13Z"/>
    </g>
    <g>
      <path class="cls-1" d="m196.97,543.52l-4.2-2.98c1.58-1.87,2.86-4.05,2.86-6.74,0-3.26-1.55-5.52-4.48-5.52s-4.4,2.21-4.4,5.2c0,1.9.36,2.88,1.45,4.81l-1.91,2.95-14.43-.78v-17.51h5.58v11.79l5.34.47c-.46-1.31-.65-2.34-.65-3.75,0-5.26,2.79-9.82,8.87-9.82s9.98,5.32,9.98,11.2c0,4.97-1.77,8.31-4.01,10.67Z"/>
      <path class="cls-1" d="m186.03,516.07c-9.73,0-14.71-4.37-14.71-10.99s4.98-10.99,14.71-10.99,14.95,4.37,14.95,10.99-5.25,10.99-14.95,10.99Zm0-16.07c-7.42,0-9.58,2.25-9.58,5.09s2.16,5.09,9.58,5.09,9.83-2.25,9.83-5.09-2.4-5.09-9.83-5.09Zm-.09,8.46c-2.07,0-3.42-1.47-3.42-3.38s1.35-3.37,3.42-3.37,3.44,1.47,3.44,3.37-1.35,3.38-3.44,3.38Z"/>
      <path class="cls-1" d="m178.82,490.47c-4.68,0-7.5-2.87-7.5-6.68s2.82-6.68,7.5-6.68,7.6,2.87,7.6,6.68-2.95,6.68-7.6,6.68Zm2.52-14.48l-8.97-7.29,3.29-3.41,7.81,8.4-2.13,2.3Zm-2.52,5.67c-3.08,0-3.95,1.01-3.95,2.13s.87,2.13,3.95,2.13,4.05-1.01,4.05-2.13-1-2.13-4.05-2.13Zm14.56-2.6c-4.68,0-7.5-2.87-7.5-6.68s2.82-6.68,7.5-6.68,7.6,2.87,7.6,6.68-2.95,6.68-7.6,6.68Zm2.52,11.75l-7.81-8.4,2.13-2.3,8.97,7.29-3.29,3.41Zm-2.52-20.57c-3.08,0-3.95,1.01-3.95,2.13s.87,2.13,3.95,2.13,4.05-1.01,4.05-2.13-1-2.13-4.05-2.13Z"/>
    </g>
    <g>
      <path class="cls-1" d="m177.83,313.58v14.34h-5.58v-21.47h4.08c7.97,7.25,13.35,8.38,24.5,8.93v6.67c-9.51-.56-15.48-2.5-23-8.47Z"/>
      <path class="cls-1" d="m197.36,301.64l-4.2-2.98c1.58-1.87,2.86-4.05,2.86-6.74,0-3.26-1.55-5.52-4.48-5.52s-4.4,2.21-4.4,5.2c0,1.9.36,2.88,1.45,4.81l-1.91,2.95-14.43-.78v-17.51h5.58v11.79l5.34.47c-.46-1.31-.65-2.34-.65-3.75,0-5.26,2.79-9.82,8.87-9.82s9.98,5.32,9.98,11.2c0,4.97-1.77,8.31-4.01,10.67Z"/>
      <path class="cls-1" d="m179.21,275.59c-4.68,0-7.5-2.87-7.5-6.68s2.82-6.68,7.5-6.68,7.6,2.87,7.6,6.68-2.95,6.68-7.6,6.68Zm2.52-14.48l-8.97-7.29,3.29-3.41,7.81,8.4-2.13,2.3Zm-2.52,5.67c-3.08,0-3.95,1.01-3.95,2.13s.87,2.13,3.95,2.13,4.05-1.01,4.05-2.13-1-2.13-4.05-2.13Zm14.56-2.6c-4.68,0-7.5-2.87-7.5-6.68s2.82-6.68,7.5-6.68,7.6,2.87,7.6,6.68-2.95,6.68-7.6,6.68Zm2.52,11.75l-7.81-8.4,2.13-2.3,8.97,7.29-3.29,3.41Zm-2.52-20.57c-3.08,0-3.95,1.01-3.95,2.13s.87,2.13,3.95,2.13,4.05-1.01,4.05-2.13-1-2.13-4.05-2.13Z"/>
    </g>
    <g>
      <path class="cls-1" d="m193.91,127.66v-9.4h-20.18v7.74h-5.03c-.71-4.72-1.57-7.2-3.18-9.89v-5.95h28.39v-7.94h6.53v25.44h-6.53Z"/>
      <path class="cls-1" d="m182.83,95.93c-11.89,0-17.97-5.34-17.97-13.43s6.09-13.43,17.97-13.43,18.27,5.34,18.27,13.43-6.42,13.43-18.27,13.43Zm0-19.64c-9.07,0-11.71,2.75-11.71,6.22s2.64,6.22,11.71,6.22,12.01-2.75,12.01-6.22-2.94-6.22-12.01-6.22Zm-.11,10.34c-2.53,0-4.19-1.79-4.19-4.12s1.65-4.12,4.19-4.12,4.2,1.79,4.2,4.12-1.65,4.12-4.2,4.12Z"/>
      <path class="cls-1" d="m182.83,62.93c-11.89,0-17.97-5.34-17.97-13.43s6.09-13.43,17.97-13.43,18.27,5.34,18.27,13.43-6.42,13.43-18.27,13.43Zm0-19.64c-9.07,0-11.71,2.75-11.71,6.22s2.64,6.22,11.71,6.22,12.01-2.75,12.01-6.22-2.94-6.22-12.01-6.22Zm-.11,10.34c-2.53,0-4.19-1.79-4.19-4.12s1.65-4.12,4.19-4.12,4.2,1.79,4.2,4.12-1.65,4.12-4.2,4.12Z"/>
      <path class="cls-1" d="m174.02,31.63c-5.72,0-9.16-3.51-9.16-8.16s3.44-8.16,9.16-8.16,9.29,3.51,9.29,8.16-3.61,8.16-9.29,8.16Zm3.07-17.7l-10.96-8.91,4.02-4.16,9.54,10.26-2.6,2.81Zm-3.07,6.93c-3.76,0-4.83,1.23-4.83,2.61s1.06,2.61,4.83,2.61,4.95-1.23,4.95-2.61-1.22-2.61-4.95-2.61Zm17.8-3.18c-5.72,0-9.16-3.51-9.16-8.16s3.44-8.16,9.16-8.16,9.29,3.51,9.29,8.16-3.61,8.16-9.29,8.16Zm3.08,14.37l-9.54-10.26,2.6-2.81,10.97,8.91-4.02,4.16Zm-3.08-25.13c-3.76,0-4.83,1.23-4.83,2.61s1.06,2.61,4.83,2.61,4.95-1.23,4.95-2.61-1.22-2.61-4.95-2.61Z"/>
    </g>
  </g>
</svg>